<?xml version="1.0" encoding="UTF-8" standalone="no"?>
<svg
   xmlns:dc="http://purl.org/dc/elements/1.1/"
   xmlns:cc="http://creativecommons.org/ns#"
   xmlns:rdf="http://www.w3.org/1999/02/22-rdf-syntax-ns#"
   xmlns:svg="http://www.w3.org/2000/svg"
   xmlns="http://www.w3.org/2000/svg"
   viewBox="0 0 257.33334 257.33334"
   height="257.33334"
   width="257.33334"
   xml:space="preserve"
   id="svg2"
   version="1.1"><metadata
     id="metadata8"><rdf:RDF><cc:Work
         rdf:about=""><dc:format>image/svg+xml</dc:format><dc:type
           rdf:resource="http://purl.org/dc/dcmitype/StillImage" /></cc:Work></rdf:RDF></metadata><defs
     id="defs6"><clipPath
       id="clipPath56"
       clipPathUnits="userSpaceOnUse"><path
         style="clip-rule:evenodd"
         id="path54"
         d="m 219.148,1039.73 c 9.778,-52.507 31.915,-92.644 82.356,-102.753 -3.774,9.062 -3.524,19.136 0.758,30.222 -6.18,3.203 -19.282,-1.07 -22.18,5.352 -19.887,44.149 -22.019,61.809 -14.086,112.519 12.203,78.04 114.57,129.77 132.227,102.76 -1.743,44.05 -12.313,72.65 -54.403,46.09 -43.117,-20.29 -86.132,-63.22 -120.136,-131.47 -9.778,-19.61 -8.422,-41.88 -4.536,-62.72 z" /></clipPath><clipPath
       id="clipPath134"
       clipPathUnits="userSpaceOnUse"><path
         style="clip-rule:evenodd"
         id="path132"
         d="m 600.137,1184.76 2.031,-0.1 2.344,-0.32 2.636,-0.58 2.895,-0.86 3.113,-1.16 3.313,-1.46 3.472,-1.76 3.618,-2.06 3.714,-2.36 3.801,-2.66 3.86,-2.93 3.894,-3.22 3.918,-3.49 3.914,-3.75 3.899,-4.01 3.859,-4.24 3.809,-4.49 3.738,-4.71 3.648,-4.93 3.551,-5.15 3.434,-5.34 3.304,-5.54 3.161,-5.72 3,-5.9 2.828,-6.07 2.644,-6.22 2.442,-6.38 2.234,-6.52 2.012,-6.66 1.769,-6.78 1.524,-6.91 1.257,-6.99 0.938,-6.96 0.613,-6.84 0.285,-6.76 -0.019,-6.66 -0.313,-6.55 -0.605,-6.44 -0.879,-6.32 -1.148,-6.16 -1.399,-6.034 -1.641,-5.871 -1.867,-5.704 -2.09,-5.519 -2.296,-5.332 -2.493,-5.133 -2.664,-4.914 -2.836,-4.691 -2.992,-4.461 -3.125,-4.207 -3.25,-3.965 -3.363,-3.684 -3.445,-3.414 -3.532,-3.129 -3.578,-2.844 -3.629,-2.543 -3.652,-2.242 -3.66,-1.941 -3.656,-1.633 -3.645,-1.332 -3.613,-1.027 -3.578,-0.735 -0.211,-0.027 2.093,-0.992 3.809,-1.461 3.816,-1.133 3.852,-0.809 3.891,-0.492 3.964,-0.164 4.028,0.168 4.058,0.5 4.09,0.836 4.133,1.18 4.168,1.519 4.176,1.871 4.191,2.215 4.176,2.567 4.152,2.906 4.094,3.254 4.031,3.574 3.95,3.906 3.839,4.215 3.711,4.527 3.578,4.817 3.422,5.101 3.243,5.364 3.05,5.621 2.848,5.867 2.625,6.102 2.387,6.312 2.14,6.52 1.879,6.711 1.594,6.9 1.312,7.06 1.004,7.22 0.696,7.35 0.359,7.5 0.024,7.61 -0.333,7.73 -0.695,7.83 -1.078,7.96 -1.437,8 -1.743,7.89 -2.027,7.76 -2.297,7.62 -2.547,7.45 -2.797,7.29 -3.023,7.12 -3.234,6.94 -3.434,6.75 -3.613,6.54 -3.778,6.33 -3.929,6.11 -4.059,5.88 -4.18,5.64 -4.269,5.39 -4.356,5.13 -4.41,4.86 -4.457,4.58 -4.476,4.29 -4.477,3.99 -4.457,3.68 -4.418,3.36 -4.344,3.03 -4.25,2.7 -4.129,2.36 -3.972,2.01 -3.793,1.67 -3.567,1.33 -3.304,0.98 -3.016,0.67 -2.68,0.37 -2.324,0.11 -2.117,-0.1 -2.082,-0.32 -2.117,-0.53 -2.16,-0.76 -2.239,-1.02 -2.32,-1.32 -2.395,-1.61 -2.464,-1.94 -2.512,-2.28 -2.551,-2.63 -2.562,-2.98 -2.559,-3.32 -2.535,-3.66 -2.5,-4 -2.438,-4.33 -2.371,-4.64 -1.8,-3.91 1.453,1.16 2.097,1.41 2.028,1.15 1.957,0.89 1.89,0.66 1.852,0.47 1.824,0.27 1.848,0.09 z" /></clipPath></defs><g
     transform="matrix(1.3333333,0,0,-1.3333333,0,257.33333)"
     id="g10"><g
       transform="scale(0.1)"
       id="g12"><path
         id="path14"
         style="fill:#ffffff;fill-opacity:1;fill-rule:evenodd;stroke:none"
         d="M 0,0 H 1927.56 V 1927.56 H 0 Z" /><path
         id="path16"
         style="fill:#231f20;fill-opacity:1;fill-rule:evenodd;stroke:none"
         d="m 959.762,776.348 c 4.738,-63.496 9.476,-126.989 14.218,-190.485 30.8,9.95 61.6,19.903 92.4,29.852 47.38,-46.438 83.39,-47.383 108.03,-2.84 138.36,-62.887 276.72,-18.25 415.08,29.852 83.1,-72.735 218.26,-20.711 253.03,45.488 -75.13,-13.895 -146.21,-13.676 -183.38,36.957 -46.43,23.695 -92.87,47.383 -139.3,71.078 -85.77,3.785 -171.53,7.574 -257.29,11.367 -77.24,-12.793 -154.48,-25.586 -231.71,-38.379 -23.69,2.371 -47.387,4.739 -71.078,7.11 v 0" /><path
         id="path18"
         style="fill:#3b5f10;fill-opacity:1;fill-rule:evenodd;stroke:none"
         d="m 1195.08,626.211 12.2,-4.68 12.19,-4.121 12.19,-3.574 12.19,-3.063 12.19,-2.554 12.21,-2.074 12.23,-1.61 12.24,-1.16 12.26,-0.73 12.3,-0.317 12.33,0.09 12.35,0.465 12.4,0.836 12.42,1.179 12.45,1.52 12.49,1.836 12.52,2.133 12.56,2.414 12.59,2.687 12.62,2.934 12.66,3.168 12.69,3.379 12.71,3.578 12.75,3.754 12.77,3.914 12.8,4.051 12.82,4.179 12.86,4.285 12.88,4.368 12.91,4.433 23.69,8.215 16.19,-13.168 7.01,-4.902 7.2,-4.305 7.41,-3.742 7.6,-3.191 7.76,-2.668 7.91,-2.153 8.06,-1.644 8.17,-1.172 8.27,-0.696 8.33,-0.226 8.38,0.223 8.38,0.652 8.37,1.074 8.32,1.485 8.25,1.871 8.13,2.234 7.98,2.594 7.81,2.922 7.6,3.234 7.36,3.52 7.1,3.789 6.78,4.019 6.45,4.246 1.31,0.957 -0.98,-0.078 -7.06,-0.379 -7.01,-0.23 -6.97,-0.071 -6.92,0.09 -6.87,0.274 -6.81,0.461 -6.75,0.656 -6.67,0.867 -6.61,1.082 -6.53,1.309 -6.45,1.55 -6.36,1.809 -6.26,2.07 -6.16,2.352 -6.03,2.637 -5.9,2.937 -5.75,3.242 -5.6,3.567 -5.42,3.89 -5.23,4.207 -5.02,4.547 -4.79,4.871 -4.56,5.204 -1.15,1.48 -0.31,0.156 -4.35,2.223 -4.36,2.219 -4.35,2.222 -4.35,2.219 -13.06,6.664 -4.36,2.215 -4.35,2.23 -4.36,2.223 -4.35,2.219 -4.36,2.222 -13.05,6.661 -4.35,2.218 -4.36,2.227 -4.36,2.219 -4.35,2.226 -4.35,2.215 -13.05,6.66 -4.36,2.223 -8.71,4.445 -4.36,2.219 -4.35,2.223 -9.11,4.648 -19.69,0.867 -8.04,0.36 -8.04,0.355 -8.04,0.356 -8.04,0.355 -8.04,0.356 -8.04,0.351 -8.04,0.359 -8.04,0.352 -8.04,0.359 -8.04,0.356 -8.04,0.355 -8.04,0.356 -8.04,0.355 -8.04,0.356 -16.09,0.707 -8.03,0.355 -8.04,0.356 -8.04,0.355 -8.05,0.36 -8.04,0.351 -8.04,0.359 -8.04,0.356 -8.04,0.352 -8.04,0.359 -8.04,0.351 -8.04,0.36 -8.04,0.351 -5.9,0.262 -5.14,-0.851 -7.24,-1.196 -7.24,-1.203 -7.24,-1.195 -7.24,-1.207 -21.72,-3.594 -7.25,-1.199 -7.24,-1.199 -14.48,-2.399 -7.24,-1.203 -21.72,-3.594 -7.24,-1.203 -7.24,-1.199 -14.48,-2.395 -7.25,-1.203 -21.71,-3.593 -7.25,-1.204 -7.24,-1.199 -14.48,-2.398 -7.24,-1.199 -24.39,-4.04 -9.37,0.934 -2.22,0.223 -2.22,0.222 -2.22,0.223 -2.23,0.219 -2.21,0.226 -6.67,0.664 -2.22,0.223 -2.22,0.223 -2.223,0.222 -2.227,0.223 -2.214,0.223 -6.664,0.664 -2.223,0.222 -2.223,0.223 -0.218,0.02 0.41,-5.5 0.89,-11.907 0.442,-5.949 0.445,-5.957 0.891,-11.902 0.441,-5.953 0.445,-5.957 0.887,-11.903 0.445,-5.953 0.446,-5.953 0.886,-11.902 0.446,-5.953 0.441,-5.954 0.895,-11.902 0.441,-5.957 0.488,-6.57 1.137,-15.153 7.047,2.278 c 16.819,7.074 36.969,15.34 56.099,20.097 2.5,1.555 14.92,29 27.62,39.032 3.44,2.718 5,-0.594 6.7,-0.422 -1.79,-2.899 -15,-41.36 -6.75,-44.492 22.9,-21.926 57.02,-42.274 79.39,-7.215 1.11,5.414 2.21,10.828 3.32,16.242 11.64,2.945 18.81,0.953 16.13,-11.914 l 13.11,-0.672 v 0" /><path
         id="path20"
         style="fill:#231f20;fill-opacity:1;fill-rule:evenodd;stroke:none"
         d="m 573.07,1304.36 c 43.797,19.01 80.215,46.31 117.258,63.34 12.91,5.94 21.164,-27.29 35.043,-24.26 11.281,2.47 -2.223,28.49 8.086,33.7 36.863,18.62 78.832,27.26 119.957,31 11.051,1 18.004,-21.65 28.301,-17.53 12.691,5.08 5.64,32.99 18.875,36.4 53.195,13.69 109.67,15.03 164.43,10.78 8.65,-0.67 0.77,-23.78 9.44,-24.26 9.08,-0.51 5.74,22.35 14.82,22.91 53.52,3.29 108,-0.76 160.39,-12.13 9.43,-2.04 4.4,-22.33 13.48,-25.61 11.28,-4.07 23.79,12.22 35.04,8.09 48.48,-17.8 93.47,-44.42 137.48,-71.43 3.47,-2.13 -5.14,-10.68 -1.35,-12.13 11.33,-4.36 27.16,6.52 36.39,-1.35 35.9,-30.61 65.89,-68.32 91.65,-107.83 3.54,-5.42 -15.62,-11.87 -10.78,-16.17 12.42,-11.04 38.32,-2.11 47.17,-16.18 19.1,-30.34 21.52,-68.57 28.31,-103.78 0.66,-3.44 -9.48,-5.89 -6.74,-8.08 7.32,-5.86 24.25,0.89 26.95,-8.09 19.32,-64.227 13.55,-134.602 35.05,-198.129 9,-26.586 57.79,-38.922 46.67,-64.695 -33.13,-76.785 -93.29,-81.567 -153.15,-63.348 -103.58,31.527 -221.32,34.481 -324.82,2.695 -94.52,-29.023 -190.72,-25.707 -283.043,20.219 -107.364,53.414 -241.356,49.906 -339.645,118.606 -81.465,56.937 -162.469,142.692 -175.219,241.262 -9.461,73.16 52.285,156.62 119.957,186 v 0" /><path
         id="path22"
         style="fill:#231f20;fill-opacity:1;fill-rule:evenodd;stroke:none"
         d="M 152.23,798.621 C 122.457,763.137 98.5352,728.129 88.3555,687.086 76.7422,640.289 93.75,604.949 169.469,595.828 c 67.094,-47.32 153.957,-55.094 269.719,-5.07 6.757,23.996 13.515,47.992 20.277,71.992 -95.649,51.035 -191.301,102.07 -286.953,153.109 -6.758,-5.746 -13.516,-11.492 -20.282,-17.238 v 0" /><path
         id="path24"
         style="fill:#747511;fill-opacity:1;fill-rule:evenodd;stroke:none"
         d="m 167.313,767.004 c -24.774,-27.035 -44.676,-53.703 -53.153,-84.973 -8.07,-29.785 0.242,-54.218 40.25,-64.519 27.766,-7.149 29.766,73.629 50.813,84.371 11.336,5.785 12.902,1.691 7.66,-5.625 -17.637,-24.664 -27.406,-90.801 -8.895,-95.914 59.082,-16.332 132.012,-27.071 216.293,6.273 -27.004,17.699 -61.656,66.824 -61.539,106.27 -46.972,32.465 -100.722,61.457 -163.402,81.445 -5.621,-4.383 -22.399,-22.953 -28.027,-27.328 v 0" /><path
         id="path26"
         style="fill:#231f20;fill-opacity:1;fill-rule:nonzero;stroke:none"
         d="m 358.906,702.641 c -0.937,3.324 0.985,6.793 4.313,7.734 42.211,96.125 292.531,17.848 253.179,-95.625 1.215,-3.23 -0.414,-6.836 -3.644,-8.051 -69.59,-26.242 -124.762,-30.156 -166.746,-13.664 -42.488,16.688 -71.086,53.863 -87.102,109.606 v 0" /><path
         id="path28"
         style="fill:#304d0c;fill-opacity:1;fill-rule:nonzero;stroke:none"
         d="m 370.949,706.066 c 14.895,-51.832 41.039,-86.23 79.61,-101.382 39.058,-15.352 91.25,-11.383 157.789,13.718 l 18.308,98.836 -255.707,-11.172 v 0" /><path
         id="path30"
         style="fill:#231f20;fill-opacity:1;fill-rule:evenodd;stroke:none"
         d="m 1343.96,519.68 c 47.15,-40.774 99.16,-39.348 153.91,-14.25 137.68,3.246 153.79,56.605 120.65,121.605 -33.13,65 -65.51,109.895 -122.55,154.856 -57.04,44.964 -122.33,36.113 -179.56,-10.45 -57.22,-46.566 -117.91,-98.968 -133.95,-208.062 35.72,-45.957 87.77,-63.609 161.5,-43.699 v 0" /><path
         id="path32"
         style="fill:#747511;fill-opacity:1;fill-rule:evenodd;stroke:none"
         d="m 1353.39,604.68 c -0.88,4.097 8.78,7.437 10.67,0.566 6.29,-22.976 -0.62,-74.156 3.4,-77.117 29.63,-21.785 69.65,-22.027 105.66,-5.649 38.27,17.411 3.47,93.372 10.06,98.571 12.58,9.933 30.26,-42.238 19.11,-92.774 108.21,6.528 120.03,51.313 91.67,105.313 -29.75,56.66 -58.83,95.789 -110.04,134.98 -51.22,39.196 -109.85,31.481 -161.23,-9.109 -51.39,-40.586 -105.89,-86.262 -120.28,-181.352 30.32,-37.871 72.7,-47.703 134.33,-40.648 6.58,0.75 17.31,64.168 16.65,67.219 v 0" /><path
         id="path34"
         style="fill:#231f20;fill-opacity:1;fill-rule:evenodd;stroke:none"
         d="m 598.016,593.273 c 9.574,-72.996 58.765,-64.769 111.32,-49.652 79.988,-53.66 149.328,-60.867 205.824,-12.016 60.043,-2.375 161.07,19.981 136.95,97.708 -21.05,67.828 -53.544,127.312 -149.766,172.187 -61,28.457 -123.621,46.895 -192.207,14.418 C 647.043,786.043 595.676,695.52 598.016,593.273 v 0" /><path
         id="path36"
         style="fill:#747511;fill-opacity:1;fill-rule:evenodd;stroke:none"
         d="m 628.5,608.098 c 6.941,-52.086 37.223,-57.078 73.48,-50 8.372,1.632 53.899,122.441 62.692,124.925 0.781,-0.097 9.769,-1.207 5.23,-10.808 -15.972,-33.793 -39.593,-108.68 -32.101,-114.074 40.855,-29.411 113.265,-39.211 155.168,-17.442 28.418,14.754 18.761,149.672 13.699,158.207 -1.332,2.242 13.098,11.453 14.363,5.723 7.938,-35.899 17.301,-127.672 13.996,-156.606 52.164,-5.925 117.133,33.067 98.633,91.723 -18.78,59.555 -47.769,111.789 -133.625,151.195 -54.426,24.989 -110.297,41.18 -171.496,12.657 C 672.246,777.367 626.418,697.883 628.5,608.098 v 0" /><path
         id="path38"
         style="fill:#871f24;fill-opacity:1;fill-rule:evenodd;stroke:none"
         d="m 577.563,1280.82 c 31.66,22.51 67.07,43.51 110.734,61.22 27.465,-30.91 50.359,-50.71 60.32,-42.31 18.758,15.81 25.524,32.56 9.906,46.81 49.141,41.31 93.348,42.19 153.954,16.21 51.148,-21.93 56.07,-67.98 9.906,-114.34 -28.973,-29.1 -64.824,-50.42 -97.238,-75.63 -49.653,30.68 -94.688,41.04 -132.34,18.9 -38.418,29.72 -76.832,59.43 -115.242,89.14 z m 328.613,98.13 c 36.465,-8.1 59.867,-24.9 67.523,-52.22 55.521,16.81 120.641,22.81 195.371,18.01 31.36,-4.8 54.36,0.92 59.42,29.71 2.59,14.73 -0.35,33.3 -23.41,37.82 -36.25,7.1 -73.83,3 -110.74,4.5 -4.5,-9.01 -11.7,-18.01 -16.2,-27.01 -19.21,17.7 -41.72,28.2 -72.93,31.51 -72.624,3.9 -105.632,-10.2 -99.034,-42.32 z m 309.714,-41.41 c 47.71,-85.61 85.52,-167.99 104.43,-251.19 50.57,-12.16 107.09,-6.26 147.66,32.41 26.42,25.19 32.41,65.42 48.61,98.13 -11.66,30.13 -30.34,59.62 -68.42,87.34 -16.21,-4.8 -32.42,-7.2 -48.62,-7.2 0.6,13.5 11.15,30.74 1.8,40.51 -21.35,22.3 -52.51,33.82 -81.93,43.22 -20.63,6.58 -43.05,3.2 -54.02,-4.51 -15.31,-10.75 -35.41,-26.41 -49.51,-38.71 z m 330.41,-155.75 c -12.15,13.48 -27.69,4.94 -35.11,-12.61 -10.41,-24.61 -11.4,-52.22 -17.1,-78.32 49.21,-32.5 75.62,-74.96 86.42,-124.255 14.41,4.805 30.06,6.829 43.22,14.411 56.25,32.404 -25.52,58.344 -42.1,84.844 5.22,11.1 4.8,22.93 13.29,34.89 -1.05,32.06 -25.97,55.91 -48.62,81.04 z M 1259.1,918.891 c 18.65,-24.422 37.29,-48.84 55.93,-73.262 9.92,-12.992 9.13,-9.918 23.81,-2.871 79.05,37.984 158.11,75.965 237.17,113.949 -22.58,63.023 -57.84,106.833 -97.23,131.443 -51.92,-24.46 -97.84,-34.37 -144.96,-32.41 -33.04,-41.1 -63.37,-83.701 -74.72,-136.849 z m -196.27,-61.219 c 68.95,-46.742 151.03,-54.098 243.99,-28.813 -19.27,25.563 -38.53,49.918 -57.79,65.836 -19.12,15.797 -14.65,9.907 -39.45,7.934 -52.55,-4.184 -101.4,-21.574 -146.75,-44.957 z M 772.926,843.266 c 31.515,38.113 69.328,78.929 100.836,117.043 11.406,9.597 24.011,9.597 37.816,0 33.613,-28.211 67.227,-56.426 100.832,-84.633 12.04,-8.395 21.36,-17.395 11.71,-30.61 -11.71,-22.808 -23.41,-45.621 -35.116,-68.425 -69.926,28.925 -146.149,49.703 -216.078,66.625 z m 269.204,-1.801 c -12,-12.27 -24.61,-41.695 -41.42,-68.426 83.27,-47.133 198.13,-57.113 325.91,9.004 30.76,15.914 9.83,41.109 -19.8,34.211 -91.71,-21.344 -184.8,-21.656 -264.69,25.211 z m 289.47,-14.152 c 10.87,-8.278 21.73,-16.559 32.59,-24.836 73.53,6.113 144.79,-11.543 214.19,-48.887 68.8,-26.125 109.28,-8.422 125.71,51.992 6.87,25.254 -4.06,36.09 -34.14,24.832 -8.6,-3.211 -15.31,-8.351 -20.96,-2.324 -14.01,14.941 -10.35,32.59 6.21,48.887 9.57,4.656 5.18,18.461 -17.85,35.695 -18.29,13.691 -39.32,23.281 -58.97,34.918 -82.26,-43.195 -164.52,-83.289 -246.78,-120.277 z m 262.29,123.386 c 27.16,-6.726 46.04,-17.59 56.65,-32.594 2.46,17.458 -0.9,35.567 -17.07,55.098 -13.19,-7.504 -26.38,-15.004 -39.58,-22.504 z M 837.316,1162.01 c 60.786,39.62 109.032,86.3 134.926,145.56 71.688,29.9 143.378,30.34 215.068,18.81 60.51,-69.99 99.76,-146.18 107.94,-231.43 -62.19,-23.85 -118,-50.02 -156.19,-82.59 C 1064.37,997.227 989.684,993.961 915,1005 c -13.152,53.49 -40.547,105.7 -77.684,157.01 z m 98.946,-205.256 c 8.16,12.816 17.957,25.086 39.254,33.527 61.164,-6.121 120.304,-11.949 165.194,7.907 52.88,31.392 99.18,62.352 148.82,72.232 23.09,4.6 30.38,-5.12 17.99,-19.63 -32.34,-37.86 -55.61,-79.591 -67.06,-127.567 -71.42,-12.266 -137.38,-27.258 -191.35,-48.246 -31.07,30.531 -68.688,57.789 -112.848,81.777 z m -86.684,46.606 c 20.863,-11.719 42.582,-23.438 74.418,-35.157 2.449,8.449 4.906,16.899 7.359,25.348 -33.378,-1.321 -57.296,4.457 -81.777,9.809 z m 22.082,-26.165 c -25.625,-13.625 -35.504,-34.136 -47.43,-53.972 -11.242,-18.692 -33.113,-18.95 -51.515,-0.813 -15.645,26.711 -26.07,53.422 -22.082,80.14 46.887,4.63 87.226,-3.82 121.027,-25.355 z m -128.265,41.325 c 47.628,-9.46 96.21,-7.4 145.335,1.12 -13.828,67.78 -34.656,132.8 -120.085,167.78 -33.645,13.77 -63.598,7.1 -75.196,-15.15 16.649,-51.25 33.297,-102.5 49.946,-153.75 v 0" /><path
         id="path40"
         style="fill:#231f20;fill-opacity:1;fill-rule:evenodd;stroke:none"
         d="m 206.578,989.188 c -11.269,-26.016 -46.672,-40.165 -70.101,-69.833 -33.864,-42.863 -22.211,-87.437 4.738,-108.011 46.246,-35.301 118.07,-54.711 169.937,-83.996 62.594,-35.344 144.754,-82.172 176.145,-81.289 23.328,0.656 34.176,10.757 64.594,23.41 72.05,29.972 182.398,83.523 234.589,147.195 44.204,53.922 -4.23,106.121 -41.042,156.566 -45.036,94.2 -58.641,203.12 -141.368,279.6 -43.48,40.2 -190.89,52.09 -239.363,9.39 -85.672,-75.47 -116.363,-176.56 -158.129,-273.032 z m -58.863,-89.114 -2.039,-3.254 -1.813,-3.211 -1.597,-3.152 -1.391,-3.121 -1.203,-3.063 -1.008,-3.003 -0.832,-2.961 -0.664,-2.899 -0.5,-2.851 -0.348,-2.789 -0.195,-2.735 -0.059,-2.683 0.079,-2.622 0.21,-2.562 0.333,-2.508 0.457,-2.445 0.566,-2.391 0.684,-2.328 0.793,-2.258 0.886,-2.187 0.996,-2.125 1.082,-2.047 1.172,-1.969 1.258,-1.887 1.34,-1.808 1.41,-1.715 1.477,-1.625 1.543,-1.531 1.601,-1.43 1.746,-1.402 3.844,-2.852 4.102,-2.859 4.257,-2.813 4.418,-2.761 4.563,-2.723 4.695,-2.676 4.824,-2.637 4.946,-2.597 5.05,-2.559 5.157,-2.527 5.25,-2.496 5.328,-2.469 5.406,-2.445 5.469,-2.426 5.527,-2.41 5.574,-2.399 5.618,-2.394 5.648,-2.387 5.668,-2.387 5.684,-2.394 5.691,-2.41 5.691,-2.422 5.684,-2.446 5.66,-2.468 5.637,-2.508 5.601,-2.539 5.567,-2.582 5.512,-2.637 5.46,-2.687 5.395,-2.754 5.32,-2.825 5.16,-2.843 6.012,-3.399 6.02,-3.394 6.097,-3.442 6.172,-3.468 6.223,-3.493 6.269,-3.496 6.293,-3.5 6.313,-3.484 6.324,-3.461 6.301,-3.426 6.285,-3.379 6.246,-3.32 6.195,-3.258 6.133,-3.172 6.055,-3.09 5.957,-2.984 5.848,-2.875 5.726,-2.742 5.586,-2.609 5.426,-2.465 5.262,-2.305 5.062,-2.133 4.852,-1.949 4.613,-1.75 4.363,-1.547 4.071,-1.332 3.746,-1.102 3.39,-0.871 2.977,-0.632 2.5,-0.399 1.941,-0.187 1.7,-0.028 1.269,0.051 1.527,0.106 1.438,0.136 1.383,0.176 1.343,0.207 1.293,0.234 1.25,0.274 1.262,0.308 1.266,0.348 1.265,0.383 1.274,0.414 1.312,0.465 1.352,0.512 1.391,0.554 1.445,0.61 1.519,0.664 1.582,0.711 1.633,0.761 1.707,0.805 1.789,0.859 1.879,0.911 1.949,0.949 2.032,0.988 2.136,1.039 2.231,1.07 2.312,1.102 2.422,1.137 2.524,1.168 2.632,1.191 2.735,1.215 2.855,1.234 2.903,1.223 6.832,2.863 6.957,2.969 7.144,3.094 7.309,3.226 7.457,3.348 7.586,3.473 7.699,3.589 7.801,3.711 7.875,3.821 7.933,3.933 7.969,4.039 7.992,4.145 7.996,4.246 7.985,4.352 7.953,4.441 7.898,4.535 7.829,4.621 7.746,4.707 7.636,4.789 7.508,4.868 7.367,4.937 7.207,5.008 7.024,5.074 6.824,5.129 6.605,5.187 6.368,5.227 6.113,5.27 5.84,5.312 5.547,5.332 5.234,5.348 4.906,5.355 4.481,5.266 3.144,4.094 2.563,3.851 2.105,3.715 1.696,3.605 1.324,3.504 0.992,3.43 0.691,3.387 0.418,3.386 0.153,3.415 c -1.395,31.074 -33.571,43.23 -55.696,84.933 -19.527,36.793 -28.046,83.442 -31.207,92.132 l -3.339,9.31 -6.614,18.52 -3.301,9.19 -3.316,9.14 -3.367,9.07 -3.414,8.99 -3.504,8.92 -3.586,8.83 -3.695,8.73 -3.817,8.61 -3.961,8.51 -4.121,8.38 -4.293,8.26 -4.484,8.13 -4.692,7.98 -4.914,7.83 -5.16,7.69 -5.41,7.54 -5.691,7.38 -5.977,7.21 -6.301,7.05 -6.629,6.89 -6.785,6.52 -3.218,2.72 -3.672,2.6 -4.332,2.64 -4.946,2.61 -5.504,2.55 -6.015,2.44 -6.473,2.31 -6.887,2.16 -7.234,2 -7.555,1.83 -7.828,1.63 -8.047,1.44 -8.226,1.23 -8.364,1.03 -8.457,0.81 -8.507,0.58 -8.508,0.35 -8.485,0.13 -8.398,-0.12 -8.281,-0.36 -8.114,-0.59 -7.906,-0.84 -7.648,-1.08 -7.34,-1.32 -6.992,-1.55 -6.598,-1.77 -6.152,-1.99 -5.649,-2.18 -5.109,-2.35 -4.527,-2.47 -3.907,-2.57 -3.578,-2.85 -7.156,-6.5 -7.125,-6.87 -6.844,-7.01 -6.586,-7.13 -6.332,-7.27 -6.093,-7.39 -5.868,-7.52 -5.652,-7.63 -5.449,-7.75 -5.258,-7.87 -5.078,-7.97 -4.91,-8.08 -4.754,-8.18 -4.61,-8.28 -4.476,-8.37 -4.352,-8.46 -4.234,-8.55 -4.137,-8.62 -4.047,-8.7 -3.968,-8.77 -3.899,-8.83 c -13,-30.06 -16.09,-62.62 -29.891,-93.324 -39.832,-70.172 -65.027,-52.047 -89.515,-87.512 v 0" /><path
         id="path42"
         style="fill:#747511;fill-opacity:1;fill-rule:evenodd;stroke:none"
         d="m 147.715,900.074 -2.039,-3.254 -1.813,-3.211 -1.597,-3.152 -1.391,-3.121 -1.203,-3.063 -1.008,-3.003 -0.832,-2.961 -0.664,-2.899 -0.5,-2.851 -0.348,-2.789 -0.195,-2.735 -0.059,-2.683 0.079,-2.622 0.21,-2.562 0.333,-2.508 0.457,-2.445 0.566,-2.391 0.684,-2.328 0.793,-2.258 0.886,-2.187 0.996,-2.125 1.082,-2.047 1.172,-1.969 1.258,-1.887 1.34,-1.808 1.41,-1.715 1.477,-1.625 1.543,-1.531 1.601,-1.43 1.746,-1.402 3.844,-2.852 4.102,-2.859 4.257,-2.813 4.418,-2.761 4.563,-2.723 4.695,-2.676 4.824,-2.637 4.946,-2.597 5.05,-2.559 5.157,-2.527 5.25,-2.496 5.328,-2.469 5.406,-2.445 5.469,-2.426 5.527,-2.41 5.574,-2.399 5.618,-2.394 5.648,-2.387 5.668,-2.387 5.684,-2.394 5.691,-2.41 5.691,-2.422 5.684,-2.446 5.66,-2.468 5.637,-2.508 5.601,-2.539 5.567,-2.582 5.512,-2.637 5.46,-2.687 5.395,-2.754 5.32,-2.825 5.16,-2.843 6.012,-3.399 6.02,-3.394 6.097,-3.442 6.172,-3.468 6.223,-3.493 6.269,-3.496 6.293,-3.5 6.313,-3.484 6.324,-3.461 6.301,-3.426 6.285,-3.379 6.246,-3.32 6.195,-3.258 6.133,-3.172 6.055,-3.09 5.957,-2.984 5.848,-2.875 5.726,-2.742 5.586,-2.609 5.426,-2.465 5.262,-2.305 5.062,-2.133 4.852,-1.949 4.613,-1.75 4.363,-1.547 4.071,-1.332 3.746,-1.102 3.39,-0.871 2.977,-0.632 2.5,-0.399 1.941,-0.187 1.7,-0.028 1.269,0.051 1.527,0.106 1.438,0.136 1.383,0.176 1.343,0.207 1.293,0.234 1.25,0.274 1.262,0.308 1.266,0.348 1.265,0.383 1.274,0.414 1.312,0.465 1.352,0.512 1.391,0.554 1.445,0.61 1.519,0.664 1.582,0.711 1.633,0.761 1.707,0.805 1.789,0.859 1.879,0.911 1.949,0.949 2.032,0.988 2.136,1.039 2.231,1.07 2.312,1.102 2.422,1.137 2.524,1.168 2.632,1.191 2.735,1.215 2.855,1.234 2.903,1.223 6.832,2.863 6.957,2.969 7.144,3.094 7.309,3.226 7.457,3.348 7.586,3.473 7.699,3.589 7.801,3.711 7.875,3.821 7.933,3.933 7.969,4.039 7.992,4.145 7.996,4.246 7.985,4.352 7.953,4.441 7.898,4.535 7.829,4.621 7.746,4.707 7.636,4.789 7.508,4.868 7.367,4.937 7.207,5.008 7.024,5.074 6.824,5.129 6.605,5.187 6.368,5.227 6.113,5.27 5.84,5.312 5.547,5.332 5.234,5.348 4.906,5.355 4.481,5.266 3.144,4.094 2.563,3.851 2.105,3.715 1.696,3.605 1.324,3.504 0.992,3.43 0.691,3.387 0.418,3.386 0.153,3.415 c -1.395,31.074 -33.571,43.23 -55.696,84.933 -19.527,36.793 -28.046,83.442 -31.207,92.132 l -3.339,9.31 -6.614,18.52 -3.301,9.19 -3.316,9.14 -3.367,9.07 -3.414,8.99 -3.504,8.92 -3.586,8.83 -3.695,8.73 -3.817,8.61 -3.961,8.51 -4.121,8.38 -4.293,8.26 -4.484,8.13 -4.692,7.98 -4.914,7.83 -5.16,7.69 -5.41,7.54 -5.691,7.38 -5.977,7.21 -6.301,7.05 -6.629,6.89 -6.785,6.52 -3.218,2.72 -3.672,2.6 -4.332,2.64 -4.946,2.61 -5.504,2.55 -6.015,2.44 -6.473,2.31 -6.887,2.16 -7.234,2 -7.555,1.83 -7.828,1.63 -8.047,1.44 -8.226,1.23 -8.364,1.03 -8.457,0.81 -8.507,0.58 -8.508,0.35 -8.485,0.13 -8.398,-0.12 -8.281,-0.36 -8.114,-0.59 -7.906,-0.84 -7.648,-1.08 -7.34,-1.32 -6.992,-1.55 -6.598,-1.77 -6.152,-1.99 -5.649,-2.18 -5.109,-2.35 -4.527,-2.47 -3.907,-2.57 -3.578,-2.85 -7.156,-6.5 -7.125,-6.87 -6.844,-7.01 -6.586,-7.13 -6.332,-7.27 -6.093,-7.39 -5.868,-7.52 -5.652,-7.63 -5.449,-7.75 -5.258,-7.87 -5.078,-7.97 -4.91,-8.08 -4.754,-8.18 -4.61,-8.28 -4.476,-8.37 -4.352,-8.46 -4.234,-8.55 -4.137,-8.62 -4.047,-8.7 -3.968,-8.77 -3.899,-8.83 c -13,-30.06 -16.09,-62.62 -29.891,-93.324 -39.832,-70.172 -65.027,-52.047 -89.515,-87.512 v 0" /><path
         id="path44"
         style="fill:#231f20;fill-opacity:1;fill-rule:evenodd;stroke:none"
         d="m 204.895,1030.98 c 6.078,-37.781 12.472,-75.136 38.906,-95.511 38.988,-30.047 90.008,-35.188 129.117,1.769 58.762,55.532 64.648,131.552 58.363,203.392 -3.152,36.07 -14.808,71.51 -37.136,107.89 -14.235,23.19 -45.993,14.57 -83.133,-15.91 -87.907,-72.17 -115.703,-142.09 -106.117,-201.63 z m 14.253,8 c 9.778,-52.511 31.915,-92.652 82.356,-102.761 -3.774,9.066 -3.524,19.14 0.758,30.222 -6.18,3.207 -19.282,-1.066 -22.18,5.352 -19.887,44.147 -22.019,61.807 -14.086,112.517 12.203,78.05 114.57,129.77 132.227,102.76 -1.743,44.05 -12.313,72.65 -54.403,46.09 -43.117,-20.28 -86.132,-63.22 -120.136,-131.46 -9.778,-19.61 -8.422,-41.88 -4.536,-62.72 v 0" /><path
         id="path46"
         style="fill:#fff200;fill-opacity:1;fill-rule:evenodd;stroke:none"
         d="m 399.238,1096.67 c 13.723,-4.99 15.934,-33.53 4.942,-63.72 -10.992,-30.18 -31.032,-50.614 -44.754,-45.618 -13.723,5 -15.938,33.528 -4.946,63.718 10.993,30.18 31.036,50.62 44.758,45.62 v 0" /><path
         id="path48"
         style="fill:#ffffff;fill-opacity:1;fill-rule:evenodd;stroke:none"
         d="m 384.617,1120.58 c -19.515,-10.51 -34.121,-23.48 -41.554,-40.04 -25.372,-3.96 -49.137,18.95 -43.821,39.29 6.891,26.39 36.77,34.76 62.707,53.64 24.684,-13.6 32.242,-31.23 22.668,-52.89 v 0" /><g
         id="g50"><g
           clip-path="url(#clipPath56)"
           id="g52"><path
             id="path58"
             style="fill:#1a71c2;fill-opacity:1;fill-rule:nonzero;stroke:none"
             d="m 213.906,1240.26 h 184.316 v 10.1094 H 213.906 Z" /><path
             id="path60"
             style="fill:#1d74c4;fill-opacity:1;fill-rule:nonzero;stroke:none"
             d="m 213.906,1230.15 h 184.316 v 10.1094 H 213.906 Z" /><path
             id="path62"
             style="fill:#2076c5;fill-opacity:1;fill-rule:nonzero;stroke:none"
             d="m 213.906,1220.04 h 184.316 v 10.1094 H 213.906 Z" /><path
             id="path64"
             style="fill:#2379c7;fill-opacity:1;fill-rule:nonzero;stroke:none"
             d="m 213.906,1209.93 h 184.316 v 10.1094 H 213.906 Z" /><path
             id="path66"
             style="fill:#267bc9;fill-opacity:1;fill-rule:nonzero;stroke:none"
             d="m 213.906,1199.82 h 184.316 v 10.1094 H 213.906 Z" /><path
             id="path68"
             style="fill:#297eca;fill-opacity:1;fill-rule:nonzero;stroke:none"
             d="m 213.906,1189.71 h 184.316 v 10.1094 H 213.906 Z" /><path
             id="path70"
             style="fill:#2c81cc;fill-opacity:1;fill-rule:nonzero;stroke:none"
             d="m 213.906,1179.61 h 184.316 v 10.1094 H 213.906 Z" /><path
             id="path72"
             style="fill:#2f83ce;fill-opacity:1;fill-rule:nonzero;stroke:none"
             d="m 213.906,1169.5 h 184.316 v 10.1094 H 213.906 Z" /><path
             id="path74"
             style="fill:#3286cf;fill-opacity:1;fill-rule:nonzero;stroke:none"
             d="m 213.906,1159.39 h 184.316 v 10.1094 H 213.906 Z" /><path
             id="path76"
             style="fill:#3589d1;fill-opacity:1;fill-rule:nonzero;stroke:none"
             d="m 213.906,1149.28 h 184.316 v 10.1094 H 213.906 Z" /><path
             id="path78"
             style="fill:#388cd3;fill-opacity:1;fill-rule:nonzero;stroke:none"
             d="m 213.906,1139.17 h 184.316 v 10.1094 H 213.906 Z" /><path
             id="path80"
             style="fill:#3c8fd4;fill-opacity:1;fill-rule:nonzero;stroke:none"
             d="m 213.906,1129.06 h 184.316 v 10.1094 H 213.906 Z" /><path
             id="path82"
             style="fill:#3f92d6;fill-opacity:1;fill-rule:nonzero;stroke:none"
             d="m 213.906,1118.95 h 184.316 v 10.1094 H 213.906 Z" /><path
             id="path84"
             style="fill:#4295d8;fill-opacity:1;fill-rule:nonzero;stroke:none"
             d="m 213.906,1108.84 h 184.316 v 10.1094 H 213.906 Z" /><path
             id="path86"
             style="fill:#4699da;fill-opacity:1;fill-rule:nonzero;stroke:none"
             d="m 213.906,1098.73 h 184.316 v 10.1133 H 213.906 Z" /><path
             id="path88"
             style="fill:#499cdb;fill-opacity:1;fill-rule:nonzero;stroke:none"
             d="m 213.906,1088.62 h 184.316 v 10.1133 H 213.906 Z" /><path
             id="path90"
             style="fill:#4c9fdd;fill-opacity:1;fill-rule:nonzero;stroke:none"
             d="m 213.906,1078.51 h 184.316 v 10.1094 H 213.906 Z" /><path
             id="path92"
             style="fill:#50a3df;fill-opacity:1;fill-rule:nonzero;stroke:none"
             d="m 213.906,1068.4 h 184.316 v 10.1094 H 213.906 Z" /><path
             id="path94"
             style="fill:#53a6e1;fill-opacity:1;fill-rule:nonzero;stroke:none"
             d="m 213.906,1058.29 h 184.316 v 10.1094 H 213.906 Z" /><path
             id="path96"
             style="fill:#57aae2;fill-opacity:1;fill-rule:nonzero;stroke:none"
             d="m 213.906,1048.18 h 184.316 v 10.1094 H 213.906 Z" /><path
             id="path98"
             style="fill:#5aaee4;fill-opacity:1;fill-rule:nonzero;stroke:none"
             d="m 213.906,1038.07 h 184.316 v 10.1094 H 213.906 Z" /><path
             id="path100"
             style="fill:#5eb1e6;fill-opacity:1;fill-rule:nonzero;stroke:none"
             d="m 213.906,1027.96 h 184.316 v 10.1094 H 213.906 Z" /><path
             id="path102"
             style="fill:#61b5e8;fill-opacity:1;fill-rule:nonzero;stroke:none"
             d="m 213.906,1017.85 h 184.316 v 10.1094 H 213.906 Z" /><path
             id="path104"
             style="fill:#65b9ea;fill-opacity:1;fill-rule:nonzero;stroke:none"
             d="m 213.906,1007.74 h 184.316 v 10.1094 H 213.906 Z" /><path
             id="path106"
             style="fill:#69bdec;fill-opacity:1;fill-rule:nonzero;stroke:none"
             d="m 213.906,997.633 h 184.316 v 10.1094 H 213.906 Z" /><path
             id="path108"
             style="fill:#6dc1ed;fill-opacity:1;fill-rule:nonzero;stroke:none"
             d="m 213.906,987.523 h 184.316 v 10.1094 H 213.906 Z" /><path
             id="path110"
             style="fill:#70c5ef;fill-opacity:1;fill-rule:nonzero;stroke:none"
             d="m 213.906,977.414 h 184.316 v 10.1094 H 213.906 Z" /><path
             id="path112"
             style="fill:#74c9f1;fill-opacity:1;fill-rule:nonzero;stroke:none"
             d="m 213.906,967.305 h 184.316 v 10.1094 H 213.906 Z" /><path
             id="path114"
             style="fill:#78cdf3;fill-opacity:1;fill-rule:nonzero;stroke:none"
             d="m 213.906,957.195 h 184.316 v 10.1094 H 213.906 Z" /><path
             id="path116"
             style="fill:#7cd2f5;fill-opacity:1;fill-rule:nonzero;stroke:none"
             d="m 213.906,947.086 h 184.316 v 10.1094 H 213.906 Z" /><path
             id="path118"
             style="fill:#80d6f7;fill-opacity:1;fill-rule:nonzero;stroke:none"
             d="m 213.906,936.977 h 184.316 v 10.1094 H 213.906 Z" /><path
             id="path120"
             style="fill:#80d6f7;fill-opacity:1;fill-rule:nonzero;stroke:none"
             d="m 213.906,936.977 h 184.316 v 0 z" /></g></g><path
         id="path122"
         style="fill:#231f20;fill-opacity:1;fill-rule:evenodd;stroke:none"
         d="m 624.141,1237.7 c 44.293,0 117.875,-70.18 132.984,-165.09 15.113,-94.926 -44.113,-176.438 -105.027,-176.438 -60.914,0 -107.289,81.512 -107.289,176.438 0,94.91 35.043,165.09 79.332,165.09 z m -24.762,-53.69 2.039,-0.1 2.336,-0.33 2.637,-0.58 2.894,-0.86 3.117,-1.16 3.313,-1.45 3.476,-1.76 3.614,-2.07 3.715,-2.36 3.796,-2.65 3.864,-2.94 3.894,-3.21 3.918,-3.49 3.914,-3.75 3.899,-4.01 3.859,-4.24 3.805,-4.5 3.738,-4.71 3.652,-4.93 3.547,-5.14 3.434,-5.34 3.305,-5.54 3.164,-5.73 2.992,-5.9 2.836,-6.06 2.64,-6.22 2.446,-6.39 2.234,-6.52 2.008,-6.65 1.769,-6.78 1.524,-6.91 1.258,-7 0.941,-6.95 0.609,-6.85 0.289,-6.75 -0.019,-6.66 -0.316,-6.56 -0.606,-6.44 -0.879,-6.31 -1.144,-6.17 -1.403,-6.032 -1.636,-5.871 -1.872,-5.699 -2.089,-5.524 -2.297,-5.328 -2.489,-5.133 -2.664,-4.918 -2.839,-4.691 -2.993,-4.457 -3.125,-4.211 -3.246,-3.961 -3.363,-3.688 -3.445,-3.414 -3.532,-3.129 -3.578,-2.839 -3.629,-2.543 -3.656,-2.247 -3.66,-1.941 -3.656,-1.633 -3.641,-1.332 -3.617,-1.027 -3.578,-0.734 -0.207,-0.028 2.097,-0.988 3.797,-1.461 3.825,-1.133 3.847,-0.812 3.891,-0.489 3.969,-0.168 4.023,0.168 4.059,0.504 4.093,0.836 4.133,1.176 4.164,1.523 4.18,1.868 4.187,2.214 4.18,2.571 4.145,2.906 4.101,3.246 4.031,3.582 3.946,3.906 3.844,4.215 3.71,4.528 3.579,4.812 3.418,5.102 3.246,5.367 3.047,5.621 2.851,5.871 2.621,6.094 2.391,6.312 2.137,6.524 1.878,6.715 1.594,6.89 1.313,7.06 1.004,7.22 0.691,7.36 0.363,7.49 0.024,7.62 -0.328,7.73 -0.696,7.83 -1.078,7.96 -1.437,7.99 -1.743,7.9 -2.023,7.76 -2.301,7.61 -2.551,7.45 -2.796,7.3 -3.024,7.11 -3.234,6.94 -3.434,6.75 -3.613,6.54 -3.774,6.34 -3.929,6.11 -4.063,5.88 -4.176,5.64 -4.273,5.39 -4.352,5.13 -4.41,4.86 -4.457,4.57 -4.476,4.29 -4.481,3.99 -4.457,3.68 -4.414,3.36 -4.344,3.03 -4.253,2.7 -4.129,2.36 -3.973,2.02 -3.789,1.67 -3.567,1.32 -3.304,0.99 -3.016,0.66 -2.68,0.37 -2.324,0.11 -2.117,-0.11 -2.086,-0.3 -2.113,-0.53 -2.164,-0.77 -2.235,-1.02 -2.32,-1.31 -2.398,-1.62 -2.461,-1.94 -2.512,-2.28 -2.555,-2.63 -2.562,-2.98 -2.555,-3.32 -2.535,-3.66 -2.5,-4 -2.441,-4.33 -2.368,-4.64 -1.808,-3.9 1.461,1.15 2.097,1.41 2.028,1.15 1.957,0.9 1.89,0.66 1.848,0.46 1.82,0.27 1.852,0.1 v 0" /><path
         id="path124"
         style="fill:#fff200;fill-opacity:1;fill-rule:evenodd;stroke:none"
         d="m 589.008,1092.63 c 15.23,0 19.726,-8.07 27.578,-49.49 7.855,-41.43 -10.863,-57.675 -27.578,-49.499 -16.715,8.179 -27.582,22.159 -27.582,49.499 0,27.32 12.351,49.49 27.582,49.49 v 0" /><path
         id="path126"
         style="fill:#ffffff;fill-opacity:1;fill-rule:evenodd;stroke:none"
         d="m 589.922,1123.03 c 16.144,-8.7 28.23,-19.42 34.375,-33.12 20.992,-3.27 40.641,15.67 36.254,32.5 -5.703,21.82 -30.422,28.75 -51.883,44.37 -20.414,-11.25 -26.664,-25.83 -18.746,-43.75 v 0" /><g
         id="g128"><g
           clip-path="url(#clipPath134)"
           id="g130"><path
             id="path136"
             style="fill:#176fc1;fill-opacity:1;fill-rule:nonzero;stroke:none"
             d="m 585.188,1218.01 h 154.625 v 0 z" /><path
             id="path138"
             style="fill:#176fc1;fill-opacity:1;fill-rule:nonzero;stroke:none"
             d="m 585.188,1208.62 h 154.625 v 9.3945 H 585.188 Z" /><path
             id="path140"
             style="fill:#1a71c2;fill-opacity:1;fill-rule:nonzero;stroke:none"
             d="m 585.188,1199.22 h 154.625 v 9.3945 H 585.188 Z" /><path
             id="path142"
             style="fill:#1d74c4;fill-opacity:1;fill-rule:nonzero;stroke:none"
             d="m 585.188,1189.83 h 154.625 v 9.3945 H 585.188 Z" /><path
             id="path144"
             style="fill:#2076c5;fill-opacity:1;fill-rule:nonzero;stroke:none"
             d="m 585.188,1180.43 h 154.625 v 9.3984 H 585.188 Z" /><path
             id="path146"
             style="fill:#2379c7;fill-opacity:1;fill-rule:nonzero;stroke:none"
             d="m 585.188,1171.04 h 154.625 v 9.3945 H 585.188 Z" /><path
             id="path148"
             style="fill:#267bc9;fill-opacity:1;fill-rule:nonzero;stroke:none"
             d="m 585.188,1161.64 h 154.625 v 9.3945 H 585.188 Z" /><path
             id="path150"
             style="fill:#297eca;fill-opacity:1;fill-rule:nonzero;stroke:none"
             d="m 585.188,1152.25 h 154.625 v 9.3945 H 585.188 Z" /><path
             id="path152"
             style="fill:#2c81cc;fill-opacity:1;fill-rule:nonzero;stroke:none"
             d="m 585.188,1142.85 h 154.625 v 9.3945 H 585.188 Z" /><path
             id="path154"
             style="fill:#2f83ce;fill-opacity:1;fill-rule:nonzero;stroke:none"
             d="m 585.188,1133.46 h 154.625 v 9.3945 H 585.188 Z" /><path
             id="path156"
             style="fill:#3286cf;fill-opacity:1;fill-rule:nonzero;stroke:none"
             d="m 585.188,1124.06 h 154.625 v 9.3984 H 585.188 Z" /><path
             id="path158"
             style="fill:#3589d1;fill-opacity:1;fill-rule:nonzero;stroke:none"
             d="m 585.188,1114.66 h 154.625 v 9.3945 H 585.188 Z" /><path
             id="path160"
             style="fill:#388cd3;fill-opacity:1;fill-rule:nonzero;stroke:none"
             d="m 585.188,1105.27 h 154.625 v 9.3945 H 585.188 Z" /><path
             id="path162"
             style="fill:#3c8fd4;fill-opacity:1;fill-rule:nonzero;stroke:none"
             d="m 585.188,1095.88 h 154.625 v 9.3945 H 585.188 Z" /><path
             id="path164"
             style="fill:#3f92d6;fill-opacity:1;fill-rule:nonzero;stroke:none"
             d="m 585.188,1086.48 h 154.625 v 9.3945 H 585.188 Z" /><path
             id="path166"
             style="fill:#4295d8;fill-opacity:1;fill-rule:nonzero;stroke:none"
             d="m 585.188,1077.09 h 154.625 v 9.3945 H 585.188 Z" /><path
             id="path168"
             style="fill:#4699da;fill-opacity:1;fill-rule:nonzero;stroke:none"
             d="m 585.188,1067.69 h 154.625 v 9.3945 H 585.188 Z" /><path
             id="path170"
             style="fill:#499cdb;fill-opacity:1;fill-rule:nonzero;stroke:none"
             d="m 585.188,1058.29 h 154.625 v 9.3984 H 585.188 Z" /><path
             id="path172"
             style="fill:#4c9fdd;fill-opacity:1;fill-rule:nonzero;stroke:none"
             d="m 585.188,1048.9 h 154.625 v 9.3945 H 585.188 Z" /><path
             id="path174"
             style="fill:#50a3df;fill-opacity:1;fill-rule:nonzero;stroke:none"
             d="m 585.188,1039.5 h 154.625 v 9.3945 H 585.188 Z" /><path
             id="path176"
             style="fill:#53a6e1;fill-opacity:1;fill-rule:nonzero;stroke:none"
             d="m 585.188,1030.11 h 154.625 v 9.3945 H 585.188 Z" /><path
             id="path178"
             style="fill:#57aae2;fill-opacity:1;fill-rule:nonzero;stroke:none"
             d="m 585.188,1020.71 h 154.625 v 9.3945 H 585.188 Z" /><path
             id="path180"
             style="fill:#5aaee4;fill-opacity:1;fill-rule:nonzero;stroke:none"
             d="m 585.188,1011.32 h 154.625 v 9.3945 H 585.188 Z" /><path
             id="path182"
             style="fill:#5eb1e6;fill-opacity:1;fill-rule:nonzero;stroke:none"
             d="m 585.188,1001.92 h 154.625 v 9.3984 H 585.188 Z" /><path
             id="path184"
             style="fill:#61b5e8;fill-opacity:1;fill-rule:nonzero;stroke:none"
             d="m 585.188,992.527 h 154.625 v 9.3945 H 585.188 Z" /><path
             id="path186"
             style="fill:#65b9ea;fill-opacity:1;fill-rule:nonzero;stroke:none"
             d="m 585.188,983.133 h 154.625 v 9.39453 H 585.188 Z" /><path
             id="path188"
             style="fill:#69bdec;fill-opacity:1;fill-rule:nonzero;stroke:none"
             d="m 585.188,973.738 h 154.625 v 9.39453 H 585.188 Z" /><path
             id="path190"
             style="fill:#6dc1ed;fill-opacity:1;fill-rule:nonzero;stroke:none"
             d="m 585.188,964.344 h 154.625 v 9.39453 H 585.188 Z" /><path
             id="path192"
             style="fill:#70c5ef;fill-opacity:1;fill-rule:nonzero;stroke:none"
             d="m 585.188,954.949 h 154.625 v 9.39453 H 585.188 Z" /><path
             id="path194"
             style="fill:#74c9f1;fill-opacity:1;fill-rule:nonzero;stroke:none"
             d="m 585.188,945.551 h 154.625 v 9.39844 H 585.188 Z" /><path
             id="path196"
             style="fill:#78cdf3;fill-opacity:1;fill-rule:nonzero;stroke:none"
             d="m 585.188,936.156 h 154.625 v 9.39453 H 585.188 Z" /><path
             id="path198"
             style="fill:#7cd2f5;fill-opacity:1;fill-rule:nonzero;stroke:none"
             d="m 585.188,926.762 h 154.625 v 9.39453 H 585.188 Z" /><path
             id="path200"
             style="fill:#80d6f7;fill-opacity:1;fill-rule:nonzero;stroke:none"
             d="m 585.188,917.367 h 154.625 v 9.39453 H 585.188 Z" /><path
             id="path202"
             style="fill:#80d6f7;fill-opacity:1;fill-rule:nonzero;stroke:none"
             d="m 585.188,917.367 h 154.625 v 0 z" /></g></g><path
         id="path204"
         style="fill:#231f20;fill-opacity:1;fill-rule:evenodd;stroke:none"
         d="m 431.699,958.945 c 0.129,3.243 -6.668,5.664 -9.082,3.493 -8.726,-7.875 -17.996,-17.696 -19.562,-29.348 -0.391,-2.871 2.527,-5.496 6.027,-6.875 0.645,-0.406 1.352,-0.738 2.109,-0.981 5.332,-1.699 11.172,1.7 13.047,7.579 1.371,4.308 0.235,8.761 -2.566,11.5 0.074,0.226 0.156,0.441 0.25,0.66 2.223,5.23 9.555,8.289 9.777,13.972 v 0" /><path
         id="path206"
         style="fill:#231f20;fill-opacity:1;fill-rule:evenodd;stroke:none"
         d="m 532.387,959.637 c -1.617,1.508 -5.899,-0.934 -5.848,-3.149 0.191,-8.011 1.152,-17.175 6.481,-23.164 1.312,-1.48 3.968,-1.14 6.238,0.063 0.5,0.148 0.984,0.367 1.445,0.652 3.25,2 4.09,6.531 1.879,10.117 -1.617,2.625 -4.426,4.02 -7.09,3.785 -0.078,0.141 -0.156,0.278 -0.23,0.422 -1.715,3.481 -0.039,8.629 -2.875,11.274 v 0" /><path
         id="path208"
         style="fill:#231f20;fill-opacity:1;fill-rule:nonzero;stroke:none"
         d="m 393.852,855.855 c -2.907,-1.863 -6.774,-1.019 -8.641,1.887 -1.863,2.903 -1.016,6.77 1.887,8.637 23.355,14.976 52.121,24.246 87.535,26.484 34.926,2.207 76.398,-2.437 125.64,-15.218 3.34,-0.868 5.34,-4.278 4.477,-7.614 -0.863,-3.336 -4.273,-5.343 -7.609,-4.476 -47.879,12.429 -88.051,16.957 -121.723,14.828 -33.18,-2.098 -59.973,-10.684 -81.566,-24.528 v 0" /><path
         id="path210"
         style="fill:#231f20;fill-opacity:1;fill-rule:nonzero;stroke:none"
         d="m 205.258,845.488 c 2.172,-2.672 1.769,-6.605 -0.91,-8.781 -2.676,-2.172 -6.61,-1.773 -8.785,0.906 -5.774,7.082 -5.297,15.364 -1.231,24.317 3.356,7.406 9.316,15.347 15.93,23.414 2.187,2.664 6.125,3.047 8.785,0.855 2.664,-2.183 3.043,-6.121 0.855,-8.781 -5.992,-7.316 -11.351,-14.406 -14.168,-20.625 -2.117,-4.672 -2.668,-8.617 -0.476,-11.305 v 0" /><path
         id="path212"
         style="fill:#231f20;fill-opacity:1;fill-rule:evenodd;stroke:none"
         d="m 485.457,909.98 c 2.242,-2.039 1.82,-5.851 -1.332,-6.191 -11.418,-1.238 -27.309,-1.594 -36.145,4.922 -2.179,1.605 -1.851,5.48 -0.281,8.965 0.192,0.742 0.469,1.476 0.844,2.195 2.66,5.043 9.758,6.774 14.289,4.613 4.527,-2.16 3.184,-8.39 3.008,-12.254 0.203,-0.093 0.406,-0.175 0.613,-0.25 5.047,-1.808 15.078,1.571 19.004,-2 v 0" /><path
         id="path214"
         style="fill:#231f20;fill-opacity:1;fill-rule:evenodd;stroke:none"
         d="m 266.793,841.551 c -7.828,-7.426 -8.672,-13.461 3.496,-17.469 40.461,-13.316 82.941,-27.984 134.637,-9.566 47.273,16.836 87.195,7.058 111.234,-5.668 30.996,-16.407 158.969,26.019 211.82,69.738 6.524,-9.785 14.997,-18.516 19.567,-29.348 3.758,-8.925 -3.863,-15.336 -11.883,-9.082 -4.707,3.668 -4.191,11.18 -6.285,16.77 -53.578,-39.492 -111.488,-74.383 -177.488,-104.117 -25.836,-11.637 -50.164,-15.321 -75.469,-8.387 -80.551,22.082 -159.516,42.129 -229.192,77.566 -9.16,4.653 -12.636,18.637 -0.703,23.758 16.926,7.262 26.266,1.496 20.266,-4.195 v 0" /><path
         id="path216"
         style="fill:#ed1c24;fill-opacity:1;fill-rule:evenodd;stroke:none"
         d="m 375.102,789.145 c 38.437,19.687 77.25,29.214 115.296,12.578 53.071,-23.207 110.797,-2.66 169.102,20.265 -39.359,-19.101 -77.98,-39.828 -118.09,-57.3 -26.82,-11.68 -54.23,-11.254 -82.457,-0.7 -27.332,10.223 -55.898,16.77 -83.851,25.157 v 0" /><path
         id="path218"
         style="fill:#f7ed19;fill-opacity:1;fill-rule:evenodd;stroke:none"
         d="m 1351.29,1263.05 c -83,0 -154.36,-13.67 -167.52,-50.1 l -29.85,-83 -33.4,-92.6 -3.04,-9.62 c -13.15,-36.433 48.08,-50.097 131.58,-50.097 83.5,0 154.35,13.664 167.5,50.097 l 26.83,74.9 c 10.63,29.35 -2.03,43.01 -86.03,43.01 -30.87,0 -52.13,-3.03 -77.94,-11.13 l 26.82,69.33 c 3.04,7.59 9.62,18.22 30.37,18.22 21.25,0 20.24,-10.63 17.71,-18.22 l -8.1,-20.24 h 125.5 l 11.14,29.35 c 13.16,36.43 -48.08,50.1 -131.57,50.1 z m -50.61,-144.73 c 20.75,0 20.24,-10.63 17.2,-18.22 l -23.79,-63.26 c -2.52,-8.09 -9.1,-18.21 -30.36,-18.21 -21.25,0 -20.24,10.12 -17.2,18.21 l 23.79,63.26 c 2.52,7.59 9.1,18.22 30.36,18.22 v 0" /><path
         id="path220"
         style="fill:#231f20;fill-opacity:1;fill-rule:nonzero;stroke:none"
         d="m 1351.29,1256.02 h -0.08 v 0.03 c -40.87,0 -78.82,-3.36 -108.08,-11.18 -4.72,-1.25 -9.18,-2.62 -13.34,-4.09 -20.52,-7.25 -34.71,-17.15 -39.42,-30.19 l -29.86,-82.99 -33.3,-92.36 0.01,-0.01 -3.04,-9.61 -0.11,-0.24 c -0.9,-2.52 -1.34,-4.87 -1.34,-7.07 h -0.03 c 0,-4.24 1.88,-8.02 5.35,-11.38 4.15,-3.99 10.42,-7.426 18.45,-10.325 23.2,-8.375 59.82,-11.941 102.56,-11.941 h 0.08 v -0.031 c 41.11,0.004 79.06,3.359 108.26,11.176 4.71,1.257 9.15,2.629 13.31,4.097 20.44,7.244 34.54,17.144 39.26,30.184 h -0.02 l 26.82,74.9 0.03,0.03 c 4.05,11.19 3.96,19.24 -4.42,24.06 -11.22,6.43 -34.29,9.53 -75.02,9.53 v 0.03 c -15.03,0 -27.75,-0.74 -39.88,-2.48 -12,-1.71 -23.42,-4.41 -35.97,-8.35 l -13.87,-4.35 5.25,13.58 26.82,69.33 0.02,0.08 c 1.87,4.65 4.86,10.27 10.74,14.87 5.73,4.47 13.98,7.77 26.14,7.77 13.65,0 20.59,-4.15 23.84,-9.78 3.4,-5.88 2.28,-12.39 0.51,-17.67 l -0.13,-0.41 -4.26,-10.63 h 110.31 l 9.42,24.82 v 0 c 0.88,2.47 1.31,4.78 1.31,6.96 h 0.03 c 0,4.23 -1.88,8.02 -5.35,11.37 -4.15,4 -10.41,7.43 -18.45,10.32 -23.19,8.38 -59.81,11.95 -102.55,11.95 z m -0.08,14.03 v 0.03 h 0.08 c 44.15,0 82.38,-3.83 107.27,-12.82 9.91,-3.58 17.87,-8.02 23.45,-13.4 6.25,-6.04 9.63,-13.17 9.63,-21.48 h 0.03 c 0,-3.72 -0.72,-7.64 -2.22,-11.79 l -0.03,-0.11 -11.13,-29.35 -1.72,-4.53 h -140.7 l 3.84,9.61 8.11,20.24 c 0.7,2.2 1.22,4.59 0.49,5.84 -0.91,1.57 -4.11,2.74 -11.7,2.74 -8.59,0 -14.01,-2.02 -17.52,-4.75 -3.34,-2.62 -5.16,-6.11 -6.34,-9.05 v 0 l -21.7,-56.09 c 8.2,2.12 16.18,3.74 24.45,4.92 12.66,1.81 26.01,2.58 41.86,2.58 v 0.04 c 43.27,0 68.52,-3.73 81.98,-11.47 16.27,-9.34 17.21,-22.8 10.65,-40.94 h 0.01 l -26.82,-74.89 h -0.02 c -6.3,-17.45 -23.42,-30.075 -47.79,-38.704 -4.55,-1.617 -9.35,-3.098 -14.34,-4.43 -30.35,-8.121 -69.55,-11.609 -111.89,-11.613 v -0.031 h -0.08 c -44.16,0 -82.38,3.836 -107.28,12.824 -9.91,3.574 -17.86,8.019 -23.45,13.406 -6.26,6.028 -9.63,13.158 -9.63,21.478 h -0.02 c 0,3.64 0.7,7.48 2.13,11.53 l -0.02,0.01 3.03,9.61 0.11,0.25 33.4,92.61 29.86,82.99 c 6.3,17.46 23.51,30.07 47.93,38.7 4.58,1.62 9.38,3.09 14.38,4.42 30.41,8.13 69.62,11.62 111.71,11.62 z m -50.53,-144.7 c 6.14,0 10.9,-0.87 14.54,-2.33 4.03,-1.61 6.8,-3.96 8.6,-6.72 1.89,-2.88 2.64,-6.02 2.64,-9.17 0,-3.32 -0.87,-6.63 -2.03,-9.55 l -23.66,-62.92 c -1.61,-5.13 -4.57,-10.93 -10.58,-15.54 -5.72,-4.39 -14.08,-7.52 -26.46,-7.52 -13.66,0 -20.6,4.01 -23.8,9.61 -3.37,5.9 -2.07,12.44 0.04,18.08 v 0.02 l 23.78,63.26 h 0.02 c 1.61,4.75 4.53,10.43 10.39,15 5.73,4.48 14.11,7.78 26.52,7.78 z m 9.33,-15.35 c -2.01,0.81 -5.03,1.29 -9.33,1.29 -8.85,0 -14.39,-2.02 -17.89,-4.75 -3.27,-2.55 -4.91,-5.86 -5.83,-8.64 l -0.08,-0.27 -23.79,-63.26 -0.01,0.01 c -0.91,-2.46 -1.63,-5.02 -0.96,-6.2 0.84,-1.47 4.03,-2.53 11.61,-2.53 8.88,0 14.44,1.93 17.95,4.62 3.19,2.44 4.8,5.72 5.72,8.66 l 0.14,0.38 23.78,63.26 0.06,0.14 c 0.58,1.45 1.02,3.02 1.02,4.42 0,0.6 -0.1,1.13 -0.32,1.48 -0.31,0.48 -0.96,0.95 -2.07,1.39 v 0" /><path
         id="path222"
         style="fill:#f7ed19;fill-opacity:1;fill-rule:evenodd;stroke:none"
         d="m 811.824,1107.18 212.546,148.28 134.1,2.02 -53.13,-148.27 h 43.02 l -17.72,-51.11 h -43.01 l -27.84,-74.905 H 929.738 l 26.821,73.885 H 791.582 l 20.242,50.1 z m 93.121,1.02 h 68.317 l 27.328,71.85 -95.645,-71.85 v 0" /><path
         id="path224"
         style="fill:#231f20;fill-opacity:1;fill-rule:nonzero;stroke:none"
         d="m 807.816,1112.92 212.544,148.28 1.77,1.23 2.16,0.03 134.1,2.02 10.09,0.15 -3.41,-9.51 -49.78,-138.88 h 42.91 l -3.23,-9.31 -17.71,-51.11 -1.65,-4.75 h -43.12 l -26.13,-70.312 -1.69,-4.559 H 919.742 l 3.406,9.387 23.399,64.464 H 781.188 l 3.89,9.64 20.238,50.1 6.508,-2.61 -4.008,5.74 z m 218.804,135.57 -209.073,-145.85 -15.563,-38.53 H 966.57 l -3.422,-9.41 -23.41,-64.501 h 115.192 l 26.14,70.341 1.7,4.59 h 42.9 l 12.84,37.05 h -43.12 l 3.36,9.39 49.72,138.76 -121.85,-1.84 z M 925.953,1115.22 h 42.477 l 16.992,44.68 -59.469,-44.68 z m 47.309,-14.05 h -68.317 v 7.03 l -4.207,5.6 95.645,71.86 19.367,14.55 -8.6,-22.62 -27.33,-71.86 -1.73,-4.56 h -4.828 v 0" /></g></g></svg>